<?xml version="1.0" standalone="no"?>
<!DOCTYPE svg PUBLIC "-//W3C//DTD SVG 20010904//EN"
 "http://www.w3.org/TR/2001/REC-SVG-20010904/DTD/svg10.dtd">
<svg version="1.0" xmlns="http://www.w3.org/2000/svg"
 width="128.000000pt" height="128.000000pt" viewBox="0 0 128.000000 128.000000"
 preserveAspectRatio="xMidYMid meet">

<g transform="translate(0.000000,128.000000) scale(0.100000,-0.100000)"
fill="#000000" stroke="none">
<path d="M362 1143 c-101 -50 -107 -189 -9 -252 l37 -24 0 -228 0 -227 -34
-20 c-123 -73 -84 -255 57 -269 53 -5 103 20 135 67 44 65 17 171 -50 202 -22
10 -28 20 -28 44 0 53 25 65 179 85 76 9 152 24 169 33 39 20 72 74 72 119 0
29 6 38 34 55 123 73 84 255 -57 269 -53 5 -103 -20 -135 -67 -44 -65 -17
-171 51 -202 21 -10 27 -20 27 -45 0 -52 -31 -68 -167 -83 -65 -7 -130 -16
-145 -21 l-28 -8 0 155 c0 120 3 154 13 154 7 0 28 16 47 35 27 28 34 44 38
87 3 44 0 59 -20 88 -43 64 -120 86 -186 53z m108 -83 c24 -24 26 -67 3 -92
-36 -40 -113 -8 -113 47 0 32 33 65 65 65 14 0 34 -9 45 -20z m427 -162 c28
-26 30 -61 3 -88 -42 -42 -110 -14 -110 46 0 58 63 83 107 42z m-425 -585 c38
-34 8 -113 -44 -113 -28 0 -68 38 -68 65 0 11 7 31 16 43 18 27 69 30 96 5z"/>
</g>
</svg>
